# xmcd CD database file
#
# Track frame offsets:
#	150
#	14405
#	31975
#	54062
#	69085
#	92340
#	110470
#	126504
#	142417
#	158445
#	172960
#
# Disc length: 2666 seconds
#
# Revision: 0
# Processed by: cddbd v1.5.2PL0 Copyright (c) Steve Scherf et al.
# Submitted via: CDex 1.70beta2
#
DISCID=840a680b
DTITLE=Jon Chandler - Keepers of the Flame
DYEAR=1996
DGENRE=Country
TTITLE0=America's Soul
TTITLE1=That's My Wife
TTITLE2=When I First Saw Her
TTITLE3=He Works The Land
TTITLE4=Red Tail
TTITLE5=Keepers of the Flame
TTITLE6=He Went Fishin' Today
TTITLE7=Fifty Years Ago
TTITLE8=Wyoming Wind
TTITLE9=Sky Farmer
TTITLE10=I'm Going Home
EXTD=YEAR: 1996
EXTT0=
EXTT1=
EXTT2=
EXTT3=
EXTT4=
EXTT5=
EXTT6=
EXTT7=
EXTT8=
EXTT9=
EXTT10=
PLAYORDER=
